<?xml version="1.0" encoding="utf-8"?>
<!-- Generator: Adobe Illustrator 22.0.1, SVG Export Plug-In . SVG Version: 6.00 Build 0)  -->
<svg version="1.1" id="레이어_1" xmlns="http://www.w3.org/2000/svg" xmlns:xlink="http://www.w3.org/1999/xlink" x="0px"
	 y="0px" viewBox="0 0 260 260" style="enable-background:new 0 0 260 260;" xml:space="preserve">
<style type="text/css">
	.st0{fill:#2979FF;}
</style>
<g>
	<g>
		<path d="M142.1,180.8l-3.3-1.9l11-19.1c2.7-2.7,6-5,9.5-6.4l30.2-13.3c3.2-1.3,5-3,5-4.4c0-1.1-1.1-2.2-2.8-2.9l-18.3-7.1
			c-4.4-1.7-5.1-0.5-6.8,2.5c-0.3,0.5-0.6,1.1-1,1.6l-13.2,20.9c-1.7,2.7-4.5,5.3-7.6,7.3l-0.8,0.3l-37.1,4.3l-0.4-3.7l36.7-4.2
			c2.5-1.6,4.7-3.7,6.1-5.9l13.2-20.9c0.3-0.5,0.6-1,0.9-1.5c1.8-3.2,4-7.1,11.5-4.2l18.4,7.2c3.3,1.4,5.2,3.8,5.2,6.4
			c0,1.8-1,5.2-7.3,7.8l-30.3,13.3c-2.9,1.2-5.8,3.1-8.1,5.4L142.1,180.8z"/>
	</g>
	<g>
		<polygon class="st0" points="137.5,184.7 62.7,153 95.6,99.1 176.9,128.6 		"/>
		<polygon points="176.9,128.6 137.5,184.7 189.2,168 		"/>
		<g>
			<g>
				<path d="M120.2,176.7c-0.2,0-0.5,0-0.7-0.1c-1.1-0.4-1.8-1.6-1.4-2.8l21.2-64.3c0.9-2.7,2.7-4.9,5.2-6.3l19.4-10.8
					c1.1-0.6,1.1-1.7,1.1-2c0-0.3-0.2-1.4-1.4-1.8l-24-8.7c-0.7-0.2-1.4-0.1-2,0.3c-0.6,0.4-0.9,1.1-0.9,1.8l0.3,18.7
					c0,2.7-1,5.3-2.9,7.2l-51.3,52.1c-0.9,0.9-2.2,0.9-3.1,0c-0.9-0.8-0.9-2.2,0-3.1l51.3-52.1c1.1-1.1,1.7-2.6,1.6-4.1l-0.3-18.7
					c0-2.1,1-4.2,2.7-5.4c1.7-1.2,4-1.5,6-0.8l24,8.7c2.4,0.9,4.1,3,4.3,5.6c0.2,2.6-1.1,5-3.3,6.2L146.6,107
					c-1.5,0.8-2.6,2.2-3.2,3.8l-21.2,64.3C122,176.1,121.1,176.7,120.2,176.7z"/>
			</g>
		</g>
		<path class="st0" d="M137.5,179l-72.4-30.8c-1.6-0.7-3.4,0.5-3.4,2.2v0.5c0,1,0.6,1.8,1.5,2.2l74.3,31.6V179z"/>
	</g>
</g>
</svg>
