<?xml version="1.0" encoding="utf-8"?>
<!-- Generator: Adobe Illustrator 22.0.1, SVG Export Plug-In . SVG Version: 6.00 Build 0)  -->
<svg version="1.1" id="레이어_1" xmlns="http://www.w3.org/2000/svg" xmlns:xlink="http://www.w3.org/1999/xlink" x="0px"
	 y="0px" viewBox="0 0 85.2 15" style="enable-background:new 0 0 85.2 15;" xml:space="preserve">
<style type="text/css">
	.st0{fill:#3365D3;}
</style>
<g>
	<g>
		<polygon class="st0" points="7.2,11.7 1.2,9.1 3.9,4.8 10.4,7.2 		"/>
		<polygon points="10.4,7.2 7.2,11.7 11.3,10.3 		"/>
		<g>
			<g>
				<path d="M5.8,11C5.8,11,5.8,11,5.8,11c-0.1,0-0.2-0.1-0.2-0.2l1.7-5.1c0.1-0.2,0.2-0.4,0.4-0.5l1.6-0.9c0.1,0,0.1-0.1,0.1-0.2
					c0,0,0-0.1-0.1-0.1L7.4,3.3c-0.1,0-0.1,0-0.2,0c0,0-0.1,0.1-0.1,0.1l0,1.5c0,0.2-0.1,0.4-0.2,0.6L2.8,9.7
					c-0.1,0.1-0.2,0.1-0.2,0c-0.1-0.1-0.1-0.2,0-0.2l4.1-4.2C6.8,5.2,6.8,5,6.8,4.9l0-1.5C6.8,3.2,6.9,3.1,7,3
					c0.1-0.1,0.3-0.1,0.5-0.1l1.9,0.7c0.2,0.1,0.3,0.2,0.3,0.4c0,0.2-0.1,0.4-0.3,0.5L7.9,5.4C7.8,5.5,7.7,5.6,7.7,5.7L6,10.9
					C6,11,5.9,11,5.8,11z"/>
			</g>
		</g>
		<path class="st0" d="M7.2,11.2L1.4,8.7c-0.1-0.1-0.3,0-0.3,0.2v0c0,0.1,0,0.1,0.1,0.2l5.9,2.5V11.2z"/>
	</g>
	<g>
		<path d="M14.8,2.8h2.9c1,0,2.8,0,3.9,1.7c0.6,0.8,0.8,1.8,0.8,2.8c0,2.4-1.2,4.5-4.6,4.5h-3.1V2.8z M17,9.7h1
			c1.7,0,2.2-1.2,2.2-2.4c0-0.5-0.1-1.1-0.4-1.6C19.5,5.2,19,4.8,18,4.8h-1V9.7z"/>
		<path d="M27,4.8c2.4,0,3.6,1.9,3.6,3.5s-1.2,3.5-3.6,3.5c-2.4,0-3.6-1.9-3.6-3.5S24.6,4.8,27,4.8z M27,10.1c0.9,0,1.6-0.7,1.6-1.7
			S27.9,6.7,27,6.7c-0.9,0-1.6,0.7-1.6,1.7S26.1,10.1,27,10.1z"/>
		<path d="M37.9,11.7H36V11h0c-0.4,0.9-1.2,0.9-1.7,0.9c-0.4,0-1.4-0.1-2-0.8c-0.5-0.7-0.6-1.1-0.6-2.1v-4h2v3.7
			c0,0.5,0,1.3,1.1,1.3c0.6,0,1.1-0.3,1.1-1.4V5.1h2V11.7z"/>
		<path d="M39.3,2.8h2v2.7C42,4.8,43,4.8,43.2,4.8c1.4,0,3.3,1,3.3,3.5c0,2.4-1.7,3.6-3.4,3.6c-0.9,0-1.7-0.5-1.9-0.9h0v0.7h-1.9
			V2.8z M42.9,10.1c1,0,1.7-0.8,1.7-1.7c0-0.9-0.6-1.7-1.6-1.7c-1.1,0-1.7,0.9-1.7,1.7C41.2,9.3,41.9,10.1,42.9,10.1z"/>
		<path d="M47.6,2.8h2v8.9h-2V2.8z"/>
		<path d="M57.5,9.6c-0.3,0.7-0.8,1.3-1.4,1.7c-0.6,0.4-1.2,0.6-1.9,0.6c-1.9,0-3.5-1.5-3.5-3.5c0-1.9,1.5-3.6,3.5-3.6
			s3.5,1.6,3.5,3.6c0,0.3,0,0.4,0,0.5h-5c0.1,0.8,0.8,1.3,1.6,1.3c0.6,0,0.9-0.3,1.2-0.6H57.5z M55.7,7.6c-0.1-0.4-0.5-1.1-1.5-1.1
			c-1,0-1.4,0.7-1.5,1.1H55.7z"/>
		<path d="M68.8,8.4c-0.5,2.1-2.3,3.5-4.5,3.5c-2.8,0-4.7-2.2-4.7-4.6c0-2.3,1.8-4.6,4.7-4.6c2.8,0,4.3,2.1,4.5,3.5h-2.4
			c-0.3-0.7-0.9-1.5-2.1-1.5c-1.5,0-2.4,1.3-2.4,2.6c0,1.3,0.9,2.6,2.4,2.6c1.4,0,2-1.2,2.1-1.5H68.8z"/>
		<path d="M69.9,2.8h2v8.9h-2V2.8z"/>
		<path d="M75.4,4.3h-2V2.8h2V4.3z M75.4,11.7h-2V5.1h2V11.7z"/>
		<path d="M76.8,5.1h1.9v0.7h0h0c0.4-0.5,1.1-1,2.1-1c2.4,0,3.3,2.1,3.3,3.6c0,1.9-1.3,3.5-3.2,3.5c-1.2,0-1.8-0.6-2-0.8v2.8h-2V5.1
			z M82,8.4c0-0.8-0.6-1.7-1.7-1.7c-1.1,0-1.7,0.9-1.7,1.7c0,0.8,0.6,1.7,1.7,1.7S82,9.2,82,8.4z"/>
	</g>
</g>
</svg>
