<?xml version="1.0" encoding="utf-8"?>
<!-- Generator: Adobe Illustrator 22.0.1, SVG Export Plug-In . SVG Version: 6.00 Build 0)  -->
<svg version="1.1" id="레이어_1" xmlns="http://www.w3.org/2000/svg" xmlns:xlink="http://www.w3.org/1999/xlink" x="0px"
	 y="0px" viewBox="0 0 47 25.1" style="enable-background:new 0 0 47 25.1;" xml:space="preserve">
<style type="text/css">
	.st0{fill:#3365D3;}
</style>
<g>
	<polygon class="st0" points="17.4,25.1 0.2,17.8 7.8,5.5 26.4,12.2 	"/>
	<polygon points="26.4,12.2 17.4,25.1 29.2,21.3 	"/>
	<g>
		<g>
			<path d="M13.4,23.2c-0.1,0-0.1,0-0.2,0c-0.3-0.1-0.4-0.4-0.3-0.6l4.8-14.7C18,7.2,18.4,6.7,19,6.4l4.4-2.5
				c0.3-0.1,0.3-0.4,0.2-0.5c0-0.1,0-0.3-0.3-0.4l-5.5-2c-0.2-0.1-0.3,0-0.5,0.1c-0.1,0.1-0.2,0.2-0.2,0.4l0.1,4.3
				c0,0.6-0.2,1.2-0.7,1.7L4.8,19.4c-0.2,0.2-0.5,0.2-0.7,0c-0.2-0.2-0.2-0.5,0-0.7L15.9,6.7c0.2-0.2,0.4-0.6,0.4-0.9l-0.1-4.3
				c0-0.5,0.2-1,0.6-1.2c0.4-0.3,0.9-0.4,1.4-0.2l5.5,2c0.6,0.2,0.9,0.7,1,1.3c0,0.6-0.2,1.1-0.8,1.4l-4.4,2.5
				c-0.3,0.2-0.6,0.5-0.7,0.9l-4.8,14.7C13.8,23.1,13.6,23.2,13.4,23.2z"/>
		</g>
	</g>
	<path class="st0" d="M17.4,23.8l-16.6-7C0.4,16.6,0,16.8,0,17.2v0.1c0,0.2,0.1,0.4,0.3,0.5l17,7.2V23.8z"/>
</g>
</svg>
