<?xml version="1.0" encoding="utf-8"?>
<!-- Generator: Adobe Illustrator 22.0.1, SVG Export Plug-In . SVG Version: 6.00 Build 0)  -->
<svg version="1.1" id="레이어_1" xmlns="http://www.w3.org/2000/svg" xmlns:xlink="http://www.w3.org/1999/xlink" x="0px"
	 y="0px" viewBox="0 0 47 25.1" style="enable-background:new 0 0 47 25.1;" xml:space="preserve">
<style type="text/css">
	.st0{fill:#3365D3;}
</style>
<g>
	<polygon class="st0" points="12.5,22.5 5.5,19.5 8.6,14.5 16.2,17.3 	"/>
	<polygon points="16.2,17.3 12.5,22.5 17.3,20.9 	"/>
	<g>
		<g>
			<path d="M10.9,21.8C10.8,21.8,10.8,21.7,10.9,21.8c-0.2,0-0.2-0.2-0.2-0.3l2-6c0.1-0.3,0.3-0.5,0.5-0.6l1.8-1
				c0.1-0.1,0.1-0.2,0.1-0.2c0,0,0-0.1-0.1-0.2l-2.2-0.8c-0.1,0-0.1,0-0.2,0c-0.1,0-0.1,0.1-0.1,0.2l0,1.7c0,0.3-0.1,0.5-0.3,0.7
				l-4.8,4.9c-0.1,0.1-0.2,0.1-0.3,0C7,20.1,7,20,7.1,19.9l4.8-4.9c0.1-0.1,0.2-0.2,0.2-0.4l0-1.7c0-0.2,0.1-0.4,0.3-0.5
				c0.2-0.1,0.4-0.1,0.6-0.1l2.2,0.8c0.2,0.1,0.4,0.3,0.4,0.5c0,0.2-0.1,0.5-0.3,0.6l-1.8,1c-0.1,0.1-0.2,0.2-0.3,0.4l-2,6
				C11,21.7,10.9,21.8,10.9,21.8z"/>
		</g>
	</g>
	<path class="st0" d="M12.5,22l-6.8-2.9c-0.1-0.1-0.3,0-0.3,0.2v0c0,0.1,0.1,0.2,0.1,0.2l6.9,2.9V22z"/>
</g>
<g>
	<path d="M2,1.9H5c1,0,2.8,0,3.9,1.7c0.6,0.8,0.8,1.8,0.8,2.8c0,2.4-1.2,4.5-4.6,4.5H2V1.9z M4.3,8.7h1c1.7,0,2.2-1.2,2.2-2.4
		c0-0.5-0.1-1.1-0.4-1.6C6.7,4.3,6.3,3.8,5.3,3.8h-1V8.7z"/>
	<path d="M14.2,3.9c2.4,0,3.6,1.9,3.6,3.5s-1.2,3.5-3.6,3.5c-2.4,0-3.6-1.9-3.6-3.5S11.8,3.9,14.2,3.9z M14.2,9.1
		c0.9,0,1.6-0.7,1.6-1.7s-0.7-1.7-1.6-1.7c-0.9,0-1.6,0.7-1.6,1.7S13.4,9.1,14.2,9.1z"/>
	<path d="M25.1,10.7h-1.9V10h0c-0.4,0.9-1.2,0.9-1.7,0.9c-0.4,0-1.4-0.1-2-0.8C19,9.4,18.9,9,18.9,8.1v-4h2v3.7c0,0.5,0,1.3,1.1,1.3
		c0.6,0,1.1-0.3,1.1-1.4V4.1h2V10.7z"/>
	<path d="M26.6,1.9h2v2.7c0.7-0.8,1.7-0.8,1.9-0.8c1.4,0,3.3,1,3.3,3.5c0,2.4-1.7,3.6-3.4,3.6c-0.9,0-1.7-0.5-1.9-0.9h0v0.7h-1.9
		V1.9z M30.1,9.1c1,0,1.7-0.8,1.7-1.7c0-0.9-0.6-1.7-1.6-1.7c-1.1,0-1.7,0.9-1.7,1.7C28.5,8.3,29.1,9.1,30.1,9.1z"/>
	<path d="M34.9,1.9h2v8.9h-2V1.9z"/>
	<path d="M44.7,8.6c-0.3,0.7-0.8,1.3-1.4,1.7c-0.6,0.4-1.2,0.6-1.9,0.6c-1.9,0-3.5-1.5-3.5-3.5c0-1.9,1.5-3.6,3.5-3.6
		s3.5,1.6,3.5,3.6c0,0.3,0,0.4,0,0.5h-5c0.1,0.8,0.8,1.3,1.6,1.3c0.6,0,0.9-0.3,1.2-0.6H44.7z M43,6.7c-0.1-0.4-0.5-1.1-1.5-1.1
		c-1,0-1.4,0.7-1.5,1.1H43z"/>
	<path d="M29.8,18c-0.5,2.1-2.3,3.5-4.5,3.5c-2.8,0-4.7-2.2-4.7-4.6c0-2.3,1.8-4.6,4.7-4.6c2.8,0,4.3,2.1,4.5,3.5h-2.4
		c-0.3-0.7-0.9-1.5-2.1-1.5c-1.5,0-2.4,1.3-2.4,2.6c0,1.3,0.9,2.6,2.4,2.6c1.4,0,2-1.2,2.1-1.5H29.8z"/>
	<path d="M30.9,12.4h2v8.9h-2V12.4z"/>
	<path d="M36.3,14h-2v-1.5h2V14z M36.3,21.3h-2v-6.7h2V21.3z"/>
	<path d="M37.7,14.7h1.9v0.7h0h0c0.4-0.5,1.1-1,2.1-1c2.4,0,3.3,2.1,3.3,3.6c0,1.9-1.3,3.5-3.2,3.5c-1.2,0-1.8-0.6-2-0.8v2.8h-2
		V14.7z M43,18c0-0.8-0.6-1.7-1.7-1.7c-1.1,0-1.7,0.9-1.7,1.7c0,0.8,0.6,1.7,1.7,1.7S43,18.8,43,18z"/>
</g>
</svg>
